<svg viewBox="0 0 120 48" role="img" aria-label="1-800-BackupCall logo with text" xmlns="http://www.w3.org/2000/svg">
  <defs>
    <linearGradient id="bcGrad" x1="0" x2="1" y1="0" y2="1">
      <stop offset="0%" stop-color="#477dff"></stop>
      <stop offset="100%" stop-color="#2749ad"></stop>
    </linearGradient>
  </defs>

  <!-- Original Logo (unchanged, positioned on left) -->
  <g transform="translate(0, 0)">
    <circle cx="24" cy="24" r="22" fill="url(#bcGrad)" opacity=".15"></circle>
    <path d="M16.5 14.8c1.3-1.3 3.4-1.3 4.7 0l1.6 1.6c.8.8 1 2 .4 3l-1.2 2a2.5 2.5 0 0 0 .3 2.9l3.4 3.4c.8.8 2.1 1 3 .3l2-1.2a3 3 0 0 1 3 .3l1.6 1.6c1.3 1.3 1.3 3.4 0 4.7l-1.1 1.1c-2.6 2.6-7.6 1.7-12.8-3.5S13 20.4 15.6 17.8l.9-.9Z" fill="url(#bcGrad)"></path>
    <rect x="21" y="7" rx="3" ry="3" width="18" height="10" fill="white"></rect>
    <text x="30" y="15" text-anchor="middle" font-size="7" font-weight="700" fill="#2749ad" font-family="ui-sans-serif, system-ui, -apple-system, Segoe UI, Roboto">
      800
    </text>
  </g>

  <!-- Added Text to the Right -->
  <g transform="translate(55, 28)">
    <text font-size="14" font-weight="700" fill="#000000" font-family="ui-sans-serif, system-ui, -apple-system, Segoe UI, Roboto">
      Backup
    </text>
    <text x="50" font-size="14" font-weight="700" fill="#2749ad" font-family="ui-sans-serif, system-ui, -apple-system, Segoe UI, Roboto">
      Call
    </text>
  </g>
</svg>
